<svg width="26" height="22" viewBox="0 0 26 22" fill="none" xmlns="http://www.w3.org/2000/svg">
<path d="M1.52089 10.228C1.52089 9.44916 2.14125 8.81775 2.9065 8.81775H24.6144C25.3796 8.81775 26 9.44916 26 10.228V12.1084C26 12.8873 25.3796 13.5187 24.6144 13.5187H2.9065C2.14125 13.5187 1.52089 12.8873 1.52089 12.1084V10.228Z" fill="black"/>
<path d="M0.445144 12.0073C-0.0959705 11.4565 -0.0959706 10.5636 0.445144 10.0129L9.87696 0.413064C10.4181 -0.137687 11.2954 -0.137688 11.8365 0.413063L13.1429 1.74269C13.684 2.29344 13.684 3.18639 13.1429 3.73714L3.71106 13.3369C3.16994 13.8877 2.29262 13.8877 1.75151 13.3369L0.445144 12.0073Z" fill="black"/>
<path d="M1.7122 8.62304C2.25332 8.07229 3.13064 8.07229 3.67175 8.62304L13.1429 18.2629C13.684 18.8136 13.684 19.7066 13.1429 20.2573L11.8365 21.5869C11.2954 22.1377 10.4181 22.1377 9.87699 21.5869L0.405835 11.9471C-0.135279 11.3964 -0.135278 10.5034 0.405836 9.95267L1.7122 8.62304Z" fill="black"/>
</svg>
