<svg width="68" height="75" viewBox="0 0 68 75" fill="none" xmlns="http://www.w3.org/2000/svg">
<path d="M27.6678 1.70578C31.5862 -0.568595 36.4138 -0.568595 40.3322 1.70578L61.6678 14.0897C65.5862 16.3641 68 20.5673 68 25.1161V49.8839C68 54.4327 65.5862 58.6359 61.6678 60.9103L40.3322 73.2942C36.4138 75.5686 31.5862 75.5686 27.6678 73.2942L6.33223 60.9103C2.41383 58.6359 0 54.4327 0 49.8839V25.1161C0 20.5673 2.41383 16.3641 6.33223 14.0897L27.6678 1.70578Z" fill="#DDDBD5"/>
<path d="M41.5789 8.63184C44.6729 6.84551 44.4848 9.23233 47.5788 11.0187L66.1577 21.7452C69.2517 23.5315 66.1577 26.0593 66.1577 29.6319V50.1319C66.1577 53.7046 64.6729 55.8456 61.5789 57.6319L44.5789 66.6319C41.4848 68.4182 40.6728 73.0315 37.5788 71.2452L19 60.5187C15.906 58.7323 14 61.2046 14 57.6319V30.4054C14 26.8328 15.906 23.5315 19 21.7452L41.5789 8.63184Z" fill="white"/>
<path d="M38.5752 4.73282L59.9108 17.1167C62.7449 18.7618 64.5 21.8087 64.5 25.1161V49.8839C64.5 53.1913 62.7449 56.2382 59.9108 57.8833L38.5752 70.2672C35.7433 71.9109 32.2567 71.9109 29.4248 70.2672L8.08923 57.8833C5.25514 56.2382 3.5 53.1913 3.5 49.8839V25.1161C3.5 21.8087 5.25514 18.7618 8.08923 17.1167L29.4248 4.73282C32.2567 3.08906 35.7433 3.08906 38.5752 4.73282Z" stroke="#E2833E" stroke-width="7"/>
</svg>
